<mxfile host="app.diagrams.net" modified="2021-04-28T02:54:16.283Z" agent="5.0 (Windows NT 10.0; WOW64) AppleWebKit/537.36 (KHTML, like Gecko) Chrome/61.0.3163.100 Safari/537.36" etag="3JrKvQLYpPIraFsoeW8R" version="14.6.6" type="github">
  <diagram id="C5RBs43oDa-KdzZeNtuy" name="Page-1">
    <mxGraphModel dx="868" dy="413" grid="1" gridSize="10" guides="1" tooltips="1" connect="1" arrows="1" fold="1" page="1" pageScale="1" pageWidth="827" pageHeight="1169" math="0" shadow="0">
      <root>
        <mxCell id="WIyWlLk6GJQsqaUBKTNV-0" />
        <mxCell id="WIyWlLk6GJQsqaUBKTNV-1" parent="WIyWlLk6GJQsqaUBKTNV-0" />
        <mxCell id="r5QRrt9jNc4bT5tqThN0-8" value="" style="rounded=1;whiteSpace=wrap;html=1;" vertex="1" parent="WIyWlLk6GJQsqaUBKTNV-1">
          <mxGeometry x="70" y="140" width="120" height="60" as="geometry" />
        </mxCell>
        <mxCell id="r5QRrt9jNc4bT5tqThN0-33" style="edgeStyle=none;rounded=0;orthogonalLoop=1;jettySize=auto;html=1;exitX=0.5;exitY=1;exitDx=0;exitDy=0;entryX=0.285;entryY=0.063;entryDx=0;entryDy=0;entryPerimeter=0;" edge="1" parent="WIyWlLk6GJQsqaUBKTNV-1" source="r5QRrt9jNc4bT5tqThN0-9" target="r5QRrt9jNc4bT5tqThN0-22">
          <mxGeometry relative="1" as="geometry" />
        </mxCell>
        <mxCell id="r5QRrt9jNc4bT5tqThN0-9" value="贷款发放冲正（DRWR）" style="rounded=1;whiteSpace=wrap;html=1;" vertex="1" parent="WIyWlLk6GJQsqaUBKTNV-1">
          <mxGeometry x="220" y="140" width="120" height="60" as="geometry" />
        </mxCell>
        <mxCell id="r5QRrt9jNc4bT5tqThN0-10" value="" style="rounded=1;whiteSpace=wrap;html=1;" vertex="1" parent="WIyWlLk6GJQsqaUBKTNV-1">
          <mxGeometry x="370" y="140" width="120" height="60" as="geometry" />
        </mxCell>
        <mxCell id="r5QRrt9jNc4bT5tqThN0-35" style="edgeStyle=none;rounded=0;orthogonalLoop=1;jettySize=auto;html=1;exitX=0.5;exitY=1;exitDx=0;exitDy=0;entryX=0.731;entryY=0.05;entryDx=0;entryDy=0;entryPerimeter=0;" edge="1" parent="WIyWlLk6GJQsqaUBKTNV-1" source="r5QRrt9jNc4bT5tqThN0-11" target="r5QRrt9jNc4bT5tqThN0-22">
          <mxGeometry relative="1" as="geometry" />
        </mxCell>
        <mxCell id="r5QRrt9jNc4bT5tqThN0-11" value="期限变更、利率变更（MATE、MATS、RATE）" style="rounded=1;whiteSpace=wrap;html=1;" vertex="1" parent="WIyWlLk6GJQsqaUBKTNV-1">
          <mxGeometry x="520" y="140" width="120" height="60" as="geometry" />
        </mxCell>
        <mxCell id="r5QRrt9jNc4bT5tqThN0-38" style="edgeStyle=none;rounded=0;orthogonalLoop=1;jettySize=auto;html=1;exitX=0.5;exitY=1;exitDx=0;exitDy=0;entryX=0.955;entryY=0.275;entryDx=0;entryDy=0;entryPerimeter=0;" edge="1" parent="WIyWlLk6GJQsqaUBKTNV-1" source="r5QRrt9jNc4bT5tqThN0-12" target="r5QRrt9jNc4bT5tqThN0-22">
          <mxGeometry relative="1" as="geometry" />
        </mxCell>
        <mxCell id="r5QRrt9jNc4bT5tqThN0-12" value="还款计划变更（SCHED）" style="rounded=1;whiteSpace=wrap;html=1;" vertex="1" parent="WIyWlLk6GJQsqaUBKTNV-1">
          <mxGeometry x="670" y="140" width="120" height="60" as="geometry" />
        </mxCell>
        <mxCell id="r5QRrt9jNc4bT5tqThN0-56" style="edgeStyle=none;rounded=0;orthogonalLoop=1;jettySize=auto;html=1;exitX=0.5;exitY=1;exitDx=0;exitDy=0;entryX=0.457;entryY=0.021;entryDx=0;entryDy=0;entryPerimeter=0;" edge="1" parent="WIyWlLk6GJQsqaUBKTNV-1" source="r5QRrt9jNc4bT5tqThN0-22" target="r5QRrt9jNc4bT5tqThN0-42">
          <mxGeometry relative="1" as="geometry" />
        </mxCell>
        <mxCell id="r5QRrt9jNc4bT5tqThN0-22" value="文件准备数据登记切面：FileDataPrepareAspect" style="ellipse;whiteSpace=wrap;html=1;" vertex="1" parent="WIyWlLk6GJQsqaUBKTNV-1">
          <mxGeometry x="90" y="280" width="670" height="80" as="geometry" />
        </mxCell>
        <mxCell id="r5QRrt9jNc4bT5tqThN0-32" style="edgeStyle=none;rounded=0;orthogonalLoop=1;jettySize=auto;html=1;exitX=0.5;exitY=1;exitDx=0;exitDy=0;entryX=0.061;entryY=0.25;entryDx=0;entryDy=0;entryPerimeter=0;" edge="1" parent="WIyWlLk6GJQsqaUBKTNV-1" source="r5QRrt9jNc4bT5tqThN0-23" target="r5QRrt9jNc4bT5tqThN0-22">
          <mxGeometry relative="1" as="geometry" />
        </mxCell>
        <mxCell id="r5QRrt9jNc4bT5tqThN0-23" value="贷款发放（DRW）" style="rounded=1;whiteSpace=wrap;html=1;" vertex="1" parent="WIyWlLk6GJQsqaUBKTNV-1">
          <mxGeometry x="70" y="140" width="120" height="60" as="geometry" />
        </mxCell>
        <mxCell id="r5QRrt9jNc4bT5tqThN0-34" style="edgeStyle=none;rounded=0;orthogonalLoop=1;jettySize=auto;html=1;exitX=0.5;exitY=1;exitDx=0;exitDy=0;entryX=0.51;entryY=-0.012;entryDx=0;entryDy=0;entryPerimeter=0;" edge="1" parent="WIyWlLk6GJQsqaUBKTNV-1" source="r5QRrt9jNc4bT5tqThN0-25" target="r5QRrt9jNc4bT5tqThN0-22">
          <mxGeometry relative="1" as="geometry" />
        </mxCell>
        <mxCell id="r5QRrt9jNc4bT5tqThN0-25" value="贷款回收（REC）" style="rounded=1;whiteSpace=wrap;html=1;" vertex="1" parent="WIyWlLk6GJQsqaUBKTNV-1">
          <mxGeometry x="370" y="140" width="120" height="60" as="geometry" />
        </mxCell>
        <mxCell id="r5QRrt9jNc4bT5tqThN0-55" style="edgeStyle=none;rounded=0;orthogonalLoop=1;jettySize=auto;html=1;exitX=1;exitY=0.5;exitDx=0;exitDy=0;entryX=0;entryY=0.5;entryDx=0;entryDy=0;" edge="1" parent="WIyWlLk6GJQsqaUBKTNV-1" source="r5QRrt9jNc4bT5tqThN0-42" target="r5QRrt9jNc4bT5tqThN0-43">
          <mxGeometry relative="1" as="geometry" />
        </mxCell>
        <mxCell id="r5QRrt9jNc4bT5tqThN0-60" style="edgeStyle=none;rounded=0;orthogonalLoop=1;jettySize=auto;html=1;exitX=0.5;exitY=1;exitDx=0;exitDy=0;" edge="1" parent="WIyWlLk6GJQsqaUBKTNV-1" source="r5QRrt9jNc4bT5tqThN0-42" target="r5QRrt9jNc4bT5tqThN0-57">
          <mxGeometry relative="1" as="geometry" />
        </mxCell>
        <mxCell id="r5QRrt9jNc4bT5tqThN0-63" style="edgeStyle=none;rounded=0;orthogonalLoop=1;jettySize=auto;html=1;exitX=1;exitY=0.5;exitDx=0;exitDy=0;entryX=0;entryY=0.5;entryDx=0;entryDy=0;" edge="1" parent="WIyWlLk6GJQsqaUBKTNV-1" source="r5QRrt9jNc4bT5tqThN0-42" target="r5QRrt9jNc4bT5tqThN0-62">
          <mxGeometry relative="1" as="geometry" />
        </mxCell>
        <mxCell id="r5QRrt9jNc4bT5tqThN0-42" value="登记NL_FILE_PRE_RECORD" style="rounded=1;whiteSpace=wrap;html=1;" vertex="1" parent="WIyWlLk6GJQsqaUBKTNV-1">
          <mxGeometry x="340" y="407.5" width="186" height="70" as="geometry" />
        </mxCell>
        <mxCell id="r5QRrt9jNc4bT5tqThN0-64" style="edgeStyle=orthogonalEdgeStyle;rounded=0;orthogonalLoop=1;jettySize=auto;html=1;exitX=1;exitY=0.5;exitDx=0;exitDy=0;entryX=1;entryY=0.5;entryDx=0;entryDy=0;" edge="1" parent="WIyWlLk6GJQsqaUBKTNV-1" source="r5QRrt9jNc4bT5tqThN0-43" target="r5QRrt9jNc4bT5tqThN0-58">
          <mxGeometry relative="1" as="geometry" />
        </mxCell>
        <mxCell id="r5QRrt9jNc4bT5tqThN0-43" value="信贷流水信息数据日间加工：FP201、FP202" style="rounded=1;whiteSpace=wrap;html=1;" vertex="1" parent="WIyWlLk6GJQsqaUBKTNV-1">
          <mxGeometry x="645" y="375" width="150" height="55" as="geometry" />
        </mxCell>
        <mxCell id="r5QRrt9jNc4bT5tqThN0-52" style="edgeStyle=none;rounded=0;orthogonalLoop=1;jettySize=auto;html=1;exitX=1;exitY=0.5;exitDx=0;exitDy=0;entryX=0;entryY=0.5;entryDx=0;entryDy=0;" edge="1" parent="WIyWlLk6GJQsqaUBKTNV-1" source="r5QRrt9jNc4bT5tqThN0-50" target="r5QRrt9jNc4bT5tqThN0-42">
          <mxGeometry relative="1" as="geometry" />
        </mxCell>
        <mxCell id="r5QRrt9jNc4bT5tqThN0-50" value="日间逾期信息登记(YUQ)：FP101" style="rounded=1;whiteSpace=wrap;html=1;" vertex="1" parent="WIyWlLk6GJQsqaUBKTNV-1">
          <mxGeometry x="30" y="370" width="160" height="60" as="geometry" />
        </mxCell>
        <mxCell id="r5QRrt9jNc4bT5tqThN0-53" style="edgeStyle=none;rounded=0;orthogonalLoop=1;jettySize=auto;html=1;exitX=1;exitY=0.5;exitDx=0;exitDy=0;entryX=0;entryY=0.6;entryDx=0;entryDy=0;entryPerimeter=0;" edge="1" parent="WIyWlLk6GJQsqaUBKTNV-1" source="r5QRrt9jNc4bT5tqThN0-51" target="r5QRrt9jNc4bT5tqThN0-42">
          <mxGeometry relative="1" as="geometry" />
        </mxCell>
        <mxCell id="r5QRrt9jNc4bT5tqThN0-51" value="日终逾期数据登记(YUQ)：&lt;br&gt;NL80152" style="rounded=1;whiteSpace=wrap;html=1;" vertex="1" parent="WIyWlLk6GJQsqaUBKTNV-1">
          <mxGeometry x="30" y="450" width="160" height="60" as="geometry" />
        </mxCell>
        <mxCell id="r5QRrt9jNc4bT5tqThN0-75" style="edgeStyle=none;rounded=0;orthogonalLoop=1;jettySize=auto;html=1;exitX=0.5;exitY=1;exitDx=0;exitDy=0;entryX=0.467;entryY=0.04;entryDx=0;entryDy=0;entryPerimeter=0;" edge="1" parent="WIyWlLk6GJQsqaUBKTNV-1" source="r5QRrt9jNc4bT5tqThN0-57" target="r5QRrt9jNc4bT5tqThN0-73">
          <mxGeometry relative="1" as="geometry" />
        </mxCell>
        <mxCell id="r5QRrt9jNc4bT5tqThN0-57" value="信贷借据信息生成：&lt;br&gt;NL8015" style="rounded=1;whiteSpace=wrap;html=1;" vertex="1" parent="WIyWlLk6GJQsqaUBKTNV-1">
          <mxGeometry x="338" y="525" width="190" height="60" as="geometry" />
        </mxCell>
        <mxCell id="r5QRrt9jNc4bT5tqThN0-76" style="edgeStyle=none;rounded=0;orthogonalLoop=1;jettySize=auto;html=1;exitX=0.5;exitY=1;exitDx=0;exitDy=0;entryX=0.5;entryY=0;entryDx=0;entryDy=0;" edge="1" parent="WIyWlLk6GJQsqaUBKTNV-1" source="r5QRrt9jNc4bT5tqThN0-58" target="r5QRrt9jNc4bT5tqThN0-74">
          <mxGeometry relative="1" as="geometry" />
        </mxCell>
        <mxCell id="r5QRrt9jNc4bT5tqThN0-58" value="信贷流水信息生成：&lt;br&gt;NL8016" style="rounded=1;whiteSpace=wrap;html=1;" vertex="1" parent="WIyWlLk6GJQsqaUBKTNV-1">
          <mxGeometry x="650" y="525" width="140" height="60" as="geometry" />
        </mxCell>
        <mxCell id="r5QRrt9jNc4bT5tqThN0-65" style="edgeStyle=orthogonalEdgeStyle;rounded=0;orthogonalLoop=1;jettySize=auto;html=1;exitX=0.5;exitY=1;exitDx=0;exitDy=0;entryX=0.5;entryY=0;entryDx=0;entryDy=0;" edge="1" parent="WIyWlLk6GJQsqaUBKTNV-1" source="r5QRrt9jNc4bT5tqThN0-62" target="r5QRrt9jNc4bT5tqThN0-58">
          <mxGeometry relative="1" as="geometry" />
        </mxCell>
        <mxCell id="r5QRrt9jNc4bT5tqThN0-62" value="&lt;span&gt;信贷流水信息数据日终加工：NL80162、NL80163&lt;/span&gt;" style="rounded=1;whiteSpace=wrap;html=1;" vertex="1" parent="WIyWlLk6GJQsqaUBKTNV-1">
          <mxGeometry x="645" y="455" width="150" height="50" as="geometry" />
        </mxCell>
        <mxCell id="r5QRrt9jNc4bT5tqThN0-66" value="文件打标数据补全；&lt;br&gt;FP103、FP104" style="rounded=1;whiteSpace=wrap;html=1;" vertex="1" parent="WIyWlLk6GJQsqaUBKTNV-1">
          <mxGeometry x="35" y="540" width="150" height="60" as="geometry" />
        </mxCell>
        <mxCell id="r5QRrt9jNc4bT5tqThN0-72" value="" style="endArrow=none;dashed=1;html=1;entryX=-0.005;entryY=0.85;entryDx=0;entryDy=0;entryPerimeter=0;" edge="1" parent="WIyWlLk6GJQsqaUBKTNV-1" target="r5QRrt9jNc4bT5tqThN0-42">
          <mxGeometry width="50" height="50" relative="1" as="geometry">
            <mxPoint x="190" y="570" as="sourcePoint" />
            <mxPoint x="340" y="490" as="targetPoint" />
          </mxGeometry>
        </mxCell>
        <mxCell id="r5QRrt9jNc4bT5tqThN0-73" value="&lt;span style=&quot;color: rgb(0 , 0 , 0) ; font-family: &amp;#34;helvetica&amp;#34; ; font-size: 12px ; font-style: normal ; font-weight: normal ; letter-spacing: normal ; text-align: center ; text-indent: 0px ; text-transform: none ; word-spacing: 0px ; background-color: rgb(248 , 249 , 250) ; display: inline ; float: none&quot;&gt;文件准备数据清理NL_FILE_PRE_RECORD&lt;br&gt;FP102&lt;br&gt;&lt;/span&gt;" style="rounded=1;whiteSpace=wrap;html=1;" vertex="1" parent="WIyWlLk6GJQsqaUBKTNV-1">
          <mxGeometry x="348" y="660" width="180" height="50" as="geometry" />
        </mxCell>
        <mxCell id="r5QRrt9jNc4bT5tqThN0-74" value="信贷流水信息数据清理&lt;br&gt;NL_BUSINESS_WASTE_BOOK&lt;br&gt;FP105" style="rounded=1;whiteSpace=wrap;html=1;" vertex="1" parent="WIyWlLk6GJQsqaUBKTNV-1">
          <mxGeometry x="631" y="655" width="178" height="60" as="geometry" />
        </mxCell>
      </root>
    </mxGraphModel>
  </diagram>
</mxfile>
